<?xml version="1.0" encoding="utf-8"?>
<!-- Generator: Adobe Illustrator 17.0.0, SVG Export Plug-In . SVG Version: 6.00 Build 0)  -->
<!DOCTYPE svg PUBLIC "-//W3C//DTD SVG 1.1//EN" "http://www.w3.org/Graphics/SVG/1.1/DTD/svg11.dtd">
<svg version="1.1" id="Calque_1" xmlns="http://www.w3.org/2000/svg" xmlns:xlink="http://www.w3.org/1999/xlink" x="0px" y="0px"
	 width="216px" height="146px" viewBox="-82.181 0.25 216 146" enable-background="new -82.181 0.25 216 146" xml:space="preserve">
<path d="M81.009,82.592v45.992c0,1.661-0.607,3.098-1.821,4.312c-1.214,1.214-2.651,1.821-4.312,1.821H38.083V97.923H13.554v36.794
	H-23.24c-1.661,0-3.098-0.607-4.312-1.821c-1.214-1.214-1.821-2.651-1.821-4.312V82.592c0-0.064,0.016-0.16,0.048-0.287
	c0.032-0.128,0.048-0.224,0.048-0.287L25.819,36.6l55.095,45.417C80.977,82.145,81.009,82.337,81.009,82.592z M102.376,75.981
	l-5.941,7.09c-0.511,0.575-1.182,0.926-2.012,1.054h-0.287c-0.83,0-1.501-0.224-2.012-0.671L25.819,28.168l-66.305,55.286
	c-0.767,0.511-1.533,0.735-2.3,0.671c-0.83-0.128-1.501-0.479-2.012-1.054l-5.941-7.09c-0.511-0.639-0.735-1.389-0.671-2.252
	s0.415-1.549,1.054-2.06l68.892-57.394c2.044-1.661,4.471-2.491,7.282-2.491c2.811,0,5.238,0.83,7.282,2.491L56.48,33.821V15.137
	c0-0.894,0.287-1.629,0.862-2.204c0.575-0.575,1.309-0.862,2.204-0.862h18.397c0.894,0,1.629,0.287,2.204,0.862
	c0.575,0.575,0.862,1.309,0.862,2.204V54.23l20.984,17.439c0.639,0.511,0.99,1.198,1.054,2.06S102.887,75.342,102.376,75.981z"/>
</svg>
