<?xml version="1.0" encoding="utf-8"?>
<!-- Generator: Adobe Illustrator 17.0.0, SVG Export Plug-In . SVG Version: 6.00 Build 0)  -->
<!DOCTYPE svg PUBLIC "-//W3C//DTD SVG 1.1//EN" "http://www.w3.org/Graphics/SVG/1.1/DTD/svg11.dtd">
<svg version="1.1" id="Calque_1" xmlns="http://www.w3.org/2000/svg" xmlns:xlink="http://www.w3.org/1999/xlink" x="0px" y="0px"
	 width="20px" height="20px" viewBox="-305.5 396.5 20 20" enable-background="new -305.5 396.5 20 20" xml:space="preserve">
<g id="icomoon-ignore">
</g>
<path d="M-295.5,396.9c-5.302,0-9.6,4.298-9.6,9.6s4.298,9.6,9.6,9.6s9.6-4.298,9.6-9.6S-290.198,396.9-295.5,396.9z
	 M-297.85,410.479h-1.944v-6.255h1.944C-297.85,404.224-297.85,410.479-297.85,410.479z M-298.834,403.456
	c-0.614,0-1.011-0.436-1.011-0.973c0-0.55,0.409-0.972,1.036-0.972c0.627,0,1.011,0.422,1.023,0.972
	C-297.785,403.021-298.182,403.456-298.834,403.456z M-290.751,410.479h-1.943v-3.467c0-0.806-0.282-1.355-0.985-1.355
	c-0.537,0-0.856,0.371-0.998,0.729c-0.051,0.127-0.064,0.307-0.064,0.485v3.607h-1.945v-4.26c0-0.78-0.025-1.433-0.051-1.995h1.688
	l0.09,0.869h0.038c0.256-0.409,0.883-1.01,1.932-1.01c1.279,0,2.238,0.856,2.238,2.698
	C-290.751,406.78-290.751,410.479-290.751,410.479z"/>
</svg>
