<?xml version="1.0" encoding="utf-8"?>
<!-- Generator: Adobe Illustrator 17.0.0, SVG Export Plug-In . SVG Version: 6.00 Build 0)  -->
<!DOCTYPE svg PUBLIC "-//W3C//DTD SVG 1.1//EN" "http://www.w3.org/Graphics/SVG/1.1/DTD/svg11.dtd">
<svg version="1.1" id="Calque_1" xmlns="http://www.w3.org/2000/svg" xmlns:xlink="http://www.w3.org/1999/xlink" x="0px" y="0px"
	 width="128px" height="128px" viewBox="37.75 116.033 128 128" enable-background="new 37.75 116.033 128 128"
	 xml:space="preserve">
<g transform="translate(-105.9462,288.4996)">
	<path d="M202.875-169.552l16.581,35.467C219.691-143.054,212.196-164.226,202.875-169.552z M254.765-167.057
		c-0.24,0.022-0.497,0.294-0.774,0.841c-3.763,6.876-10.256,10.959-16.325,12.666c-6.17,1.732-12.588,5.864-14.943,10.548
		c-2.751,6.387-1.571,11.457,1.104,17.212c3.374-0.511,6.751-1.815,9.609-3.185c7.331-3.569,13.682-9.163,17.813-15.709
		c1.661-2.633,1.986-2.16,0.556,0.804c-2.693,5.581-11.517,13.402-22.598,20.036c-2.47,1.479-2.506,1.53-1.397,2.494
		c3.546,3.086,7.433,4.953,10.961,5.251c15.301,0.07,21.869-16.322,22.298-27.714c-0.114-7.392-1.364-16.944-5.89-23.011
		C255.041-166.997,254.909-167.07,254.765-167.057L254.765-167.057z M198.991-135.256c-24.404,0-44.295,19.891-44.295,44.295
		s19.891,44.295,44.295,44.295s44.287-19.891,44.287-44.295c0-6.101-1.235-11.946-3.478-17.249l-9.293,3.929
		c1.729,4.089,2.69,8.582,2.69,13.32c0,18.4-14.379,33.314-32.56,34.168c21.04-14.375,30.565-51.602,19.315-75.27
		c0.894,16.243,0.161,60.438-24.987,75.074c-17.039-1.982-30.186-16.384-30.186-33.972c0-18.953,15.26-34.205,34.213-34.205
		c4.738,0,9.216,0.945,13.305,2.675l3.937-9.278C210.93-134.013,205.092-135.256,198.991-135.256L198.991-135.256z"/>
</g>
</svg>
