<?xml version="1.0" standalone="no"?> 
<!DOCTYPE svg PUBLIC "-//W3C//DTD SVG 1.1//EN" "http://www.w3.org/Graphics/SVG/1.1/DTD/svg11.dtd" >
<svg xmlns="http://www.w3.org/2000/svg">
<defs>
  <font id="icons" horiz-adv-x="216">
    <font-face font-family="icons"
      units-per-em="146" ascent="146"
      descent="0" />
    <missing-glyph horiz-adv-x="0" />
    <glyph glyph-name="arrow.svgx"
      unicode="&#xE001;"
      horiz-adv-x="146" d=" M73 146C32.6811875 146 0 113.3188125 0 73S32.6811875 0 73 0S146 32.6811875 146 73S113.3188125 146 73 146zM73 13.6875C40.24125 13.6875 13.6875 40.24125 13.6875 73S40.24125 132.3125 73 132.3125S132.3125 105.75875 132.3125 73S105.75875 13.6875 73 13.6875zM115.951375 79.451375L79.451375 115.951375C75.8880625 119.5146875 70.1119375 119.5146875 66.548625 115.951375S62.9853125 106.6119375 66.548625 103.048625L87.47225 82.125H36.5C31.4584375 82.125 27.375 78.0415625 27.375 73S31.4584375 63.875 36.5 63.875H87.47225L66.548625 42.951375C62.9853125 39.3880625 62.9853125 33.6119375 66.548625 30.0440625C68.3325625 28.2646875 70.664 27.3704375 73 27.3704375S77.672 28.260125 79.451375 30.0440625L115.951375 66.5440625C119.5146875 70.107375 119.5146875 75.8835 115.951375 79.4468125z" />
    <glyph glyph-name="cancel.svgx"
      unicode="&#xE002;"
      horiz-adv-x="146" d=" M73 146C32.6811875 146 0 113.3188125 0 73S32.6811875 0 73 0S146 32.6811875 146 73S113.3188125 146 73 146zM109.5 96.59725L85.90275 73L109.5 49.40275V36.5H96.59725L73 60.09725L49.40275 36.5H36.5V49.40275L60.09725 73L36.5 96.59725V109.5H49.40275L73 85.90275L96.59725 109.5H109.5V96.59725z" />
    <glyph glyph-name="close.svgx"
      unicode="&#xE003;"
      horiz-adv-x="146" d=" M144.66775 28.70725C144.66775 28.70725 144.66775 28.70725 144.66775 28.70725L100.375 73L144.66775 117.29275C144.66775 117.29275 144.66775 117.29275 144.66775 117.29275C145.1468125 117.7718125 145.489 118.3284375 145.7125625 118.9215625C146.319375 120.5458125 145.972625 122.43925 144.66775 123.744125L123.744125 144.66775C122.43925 145.972625 120.54125 146.3148125 118.9215625 145.7125625C118.3284375 145.4935625 117.7718125 145.1468125 117.29275 144.6723125C117.29275 144.6723125 117.29275 144.6723125 117.29275 144.6723125L73 100.3795625L28.70725 144.6723125C28.70725 144.6723125 28.70725 144.6723125 28.70725 144.6723125C28.2281875 145.1468125 27.6715625 145.4935625 27.0784375 145.7125625C25.4541875 146.319375 23.56075 145.972625 22.255875 144.66775L1.33225 123.744125C0.027375 122.43925 -0.3148125 120.54125 0.2874375 118.9215625C0.511 118.3284375 0.8531875 117.7718125 1.33225 117.29275C1.33225 117.29275 1.33225 117.29275 1.33225 117.29275L45.625 73L1.33225 28.70725C1.33225 28.70725 1.33225 28.70725 1.33225 28.70725C0.85775 28.2281875 0.511 27.6715625 0.2874375 27.0784375C-0.319375 25.45875 0.027375 23.56075 1.33225 22.255875L22.255875 1.33225C23.56075 0.027375 25.45875 -0.3148125 27.0784375 0.2874375C27.6715625 0.511 28.2281875 0.8531875 28.70725 1.33225C28.70725 1.33225 28.70725 1.33225 28.70725 1.33225L73 45.625L117.29275 1.33225C117.29275 1.33225 117.29275 1.33225 117.29275 1.33225C117.7718125 0.8531875 118.3284375 0.511 118.9215625 0.2874375C120.5458125 -0.319375 122.43925 0.027375 123.744125 1.33225L144.66775 22.255875C145.972625 23.56075 146.319375 25.45875 145.7125625 27.0784375C145.489 27.6715625 145.1468125 28.2281875 144.66775 28.70725z" />
    <glyph glyph-name="comments.svgx"
      unicode="&#xE004;"
      horiz-adv-x="164.25" d=" M68.4375 127.75C61.2150625 127.75 54.239 126.6185 47.7100625 124.382875C41.59175 122.2886875 36.144125 119.3321875 31.526875 115.5955C22.967625 108.669625 18.25 99.7955625 18.25 90.620375C18.25 85.4875625 19.6871875 80.5053125 22.5159375 75.8059375C25.4633125 70.910375 29.9163125 66.4254375 35.38675 62.8393125C39.7256875 59.9923125 42.65025 55.434375 43.4213125 50.3015625C43.5490625 49.448375 43.654 48.590625 43.7315625 47.7283125C44.119375 48.08875 44.502625 48.4583125 44.8904375 48.8415625C48.3305625 52.268 52.970625 54.1614375 57.770375 54.1614375C58.5323125 54.1614375 59.2988125 54.11125 60.0653125 54.0154375C62.825625 53.664125 65.64525 53.4861875 68.4420625 53.4861875C75.6645 53.4861875 82.6405625 54.6176875 89.1695 56.8533125C95.2878125 58.9475 100.7354375 61.904 105.3526875 65.6406875C113.9119375 72.5665625 118.6295625 81.440625 118.6295625 90.6158125S113.9165 108.6650625 105.3526875 115.5909375C100.7354375 119.327625 95.2878125 122.284125 89.1695 124.3783125C82.6405625 126.6139375 75.6645 127.7454375 68.4420625 127.7454375zM68.4375 146V146C106.23325 146 136.875 121.2028125 136.875 90.6158125S106.23325 35.231625 68.4375 35.231625C64.80575 35.231625 61.247 35.4643125 57.7658125 35.9023125C43.0654375 21.26125 26.088375 18.63325 9.125 18.25V21.8315625C18.2865 26.3028125 25.6640625 34.446875 25.6640625 43.7498125C25.6640625 45.050125 25.5636875 46.3230625 25.376625 47.568625C9.900625 57.7201875 0 73.2326875 0 90.61125C0 121.19825 30.64175 145.9954375 68.4375 145.9954375zM142.0078125 21.8589375C142.0078125 13.8836875 147.18625 6.9030625 155.125 3.0705625V0C140.4200625 0.3285 126.9241875 2.582375 114.1856875 15.12925C111.169875 14.7505625 108.085625 14.554375 104.9375 14.554375C91.3275625 14.554375 78.78525 18.2271875 68.7796875 24.3956875C89.40675 24.4686875 108.8795 31.0751875 123.6483125 43.0289375C131.08975 49.0514375 136.96625 56.1233125 141.099875 64.03925C145.4844375 72.43425 147.7109375 81.3721875 147.7109375 90.6158125C147.7109375 92.1031875 147.6470625 93.586 147.533 95.0596875C157.88075 86.514125 164.25 74.8660625 164.25 62.0271875C164.25 47.130625 155.6725 33.8355 142.25875 25.1348125C142.0945 24.0671875 142.0078125 22.9721875 142.0078125 21.8589375z" />
    <glyph glyph-name="download.svgx"
      unicode="&#xE005;"
      horiz-adv-x="146" d=" M146 73C146 113.3188125 113.3188125 146 73 146S0 113.3188125 0 73S32.6811875 0 73 0S146 32.6811875 146 73zM13.6875 73C13.6875 105.75875 40.24125 132.3125 73 132.3125S132.3125 105.75875 132.3125 73S105.75875 13.6875 73 13.6875S13.6875 40.24125 13.6875 73zM79.451375 30.048625L115.951375 66.548625C119.5146875 70.1119375 119.5146875 75.8880625 115.951375 79.451375S106.6119375 83.0146875 103.048625 79.451375L82.125 58.52775V109.5C82.125 114.5415625 78.0415625 118.625 73 118.625S63.875 114.5415625 63.875 109.5V58.52775L42.951375 79.451375C39.3880625 83.0146875 33.6119375 83.0146875 30.0440625 79.451375C28.260125 77.6674375 27.3704375 75.336 27.3704375 73S28.260125 68.328 30.0440625 66.548625L66.5440625 30.048625C70.107375 26.4853125 75.8835 26.4853125 79.4468125 30.048625z" />
    <glyph glyph-name="envelope"
      unicode="&#xE006;"
      horiz-adv-x="216" d=" M49.013 94.997C50.86 93.694 56.427 89.823 65.715 83.387S82.118 71.995 87.061 68.52C87.604 68.139 88.758 67.311 90.523 66.035C92.288 64.758 93.755 63.725 94.922 62.938C96.09 62.151 97.502 61.268 99.159 60.291C100.816 59.314 102.378 58.58 103.844 58.093C105.311 57.603 106.669 57.36 107.918 57.36H108H108.082C109.331 57.36 110.689 57.603 112.156 58.093C113.622 58.58 115.185 59.315 116.841 60.291C118.497 61.269 119.909 62.151 121.077 62.938S123.711 64.758 125.476 66.035S128.396 68.139 128.939 68.52C133.935 71.996 146.646 80.822 167.068 94.999C171.033 97.768 174.345 101.109 177.007 105.02C179.67 108.929 181 113.03 181 117.321C181 120.906 179.709 123.975 177.129 126.528C174.549 129.081 171.493 130.357 167.964 130.357H48.035C43.853 130.357 40.635 128.945 38.381 126.121C36.127 123.296 35 119.765 35 115.529C35 112.107 36.494 108.399 39.481 104.407S45.646 97.278 49.013 94.997z M172.852 86.28C155.038 74.223 141.512 64.853 132.28 58.172C129.184 55.891 126.672 54.111 124.743 52.836C122.815 51.559 120.249 50.256 117.044 48.925C113.84 47.594 110.853 46.929 108.083 46.929H108H107.918C105.148 46.929 102.16 47.594 98.956 48.925S93.185 51.559 91.257 52.836C89.329 54.111 86.817 55.891 83.721 58.172C76.388 63.549 62.891 72.919 43.229 86.28C40.133 88.343 37.39 90.707 35 93.368V28.68C35 25.094 36.276 22.026 38.829 19.473C41.382 16.919 44.451 15.643 48.036 15.643H167.965C171.549 15.643 174.618 16.919 177.171 19.473C179.725 22.027 181 25.094 181 28.68V93.368C178.664 90.762 175.949 88.398 172.852 86.28z" />
    <glyph glyph-name="error.svgx"
      unicode="&#xE007;"
      horiz-adv-x="146" d=" M0 73C0 32.6811875 32.6811875 0 73 0S146 32.6811875 146 73S113.3188125 146 73 146C32.6811875 146 0 113.3188125 0 73zM127.75 73C127.75 62.5564375 124.8254375 52.79725 119.7519375 44.4980625L44.4980625 119.7519375C52.8018125 124.8254375 62.561 127.75 73 127.75C103.2356875 127.75 127.75 103.2356875 127.75 73zM18.25 73C18.25 83.4435625 21.1745625 93.1981875 26.2480625 101.5019375L101.5019375 26.2480625C93.1981875 21.1745625 83.439 18.25 73 18.25C42.7643125 18.25 18.25 42.7643125 18.25 73z" />
    <glyph glyph-name="facebook"
      unicode="&#xE008;"
      horiz-adv-x="216" d=" M118.348 96.139V107.708C118.348 109.445 118.428 110.79 118.591 111.74C118.753 112.692 119.121 113.628 119.692 114.552C120.262 115.475 121.186 116.113 122.462 116.466C123.739 116.82 125.437 116.996 127.556 116.996H139.124V140.134H120.63C109.928 140.134 102.243 137.595 97.572 132.517C92.901 127.438 90.566 119.957 90.566 110.071V96.139H76.714V73H90.565V5.866H118.348V73H136.842L139.286 96.139H118.348z" />
    <glyph glyph-name="facebook.svgx"
      unicode="&#xE009;"
      horiz-adv-x="146" d=" M73 143.71875C112.058421875 143.71875 143.71875 111.935234375 143.71875 72.725109375C143.71875 36.5228125 116.725859375 6.6475625 81.83984375 2.28125V54.976984375H106.14884375L108.359375 72.725109375H81.83984375V81.599171875C81.83984375 86.50271875 85.79553125 90.473234375 90.6796875 90.473234375H108.359375V108.221359375H90.6796875C76.03178125 108.221359375 64.16015625 96.3029687499999 64.16015625 81.599171875V72.725109375H50.900390625V54.976984375H64.16015625V2.28125C29.274140625 6.6475625 2.28125 36.5228125 2.28125 72.725109375C2.28125 111.935234375 33.941578125 143.71875 73 143.71875z" />
    <glyph glyph-name="github"
      unicode="&#xE00A;"
      horiz-adv-x="216" d=" M164.703 98.908C166.17 103.309 166.904 107.871 166.904 112.596C166.904 118.897 165.517 124.818 162.748 130.358C156.937 130.358 151.805 129.298 147.35 127.18C142.897 125.062 137.819 121.776 132.117 117.322C124.948 119.06 117.342 119.929 109.304 119.929C100.505 119.929 92.113 118.978 84.129 117.077C78.318 121.64 73.185 124.993 68.731 127.139S59.117 130.358 53.251 130.358C50.481 124.818 49.096 118.897 49.096 112.596C49.096 107.816 49.829 103.199 51.296 98.746C43.908 90.109 40.215 79.355 40.215 66.482C40.215 55.183 41.898 46.195 45.266 39.513C47.059 35.984 49.394 32.861 52.273 30.144C55.151 27.429 58.437 25.228 62.131 23.544C65.825 21.861 69.545 20.462 73.293 19.349S81.182 17.421 85.718 16.906C90.253 16.388 94.259 16.05 97.735 15.886C101.211 15.724 105.067 15.642 109.304 15.642C114.301 15.642 118.835 15.765 122.91 16.008C126.985 16.252 131.641 16.851 136.883 17.8C142.124 18.751 146.741 20.041 150.734 21.67C154.726 23.3 158.556 25.635 162.222 28.677C165.888 31.72 168.753 35.33 170.818 39.513C174.13 46.249 175.787 55.239 175.787 66.482C175.785 79.409 172.092 90.218 164.703 98.908zM154.93 39.637C153.192 36.079 150.991 33.283 148.33 31.245C145.668 29.208 142.355 27.579 138.391 26.355C134.424 25.134 130.624 24.333 126.985 23.953C123.344 23.573 119.299 23.383 114.844 23.383H101.156C96.702 23.383 92.655 23.573 89.016 23.953C85.377 24.333 81.575 25.134 77.61 26.355C73.646 27.579 70.333 29.207 67.671 31.245S62.809 36.079 61.071 39.637C59.333 43.196 58.464 47.364 58.464 52.143C58.464 58.662 60.338 64.203 64.086 68.764C67.834 73.327 72.912 75.608 79.321 75.608C81.657 75.608 86.953 75.038 95.209 73.897C99.065 73.3 103.329 73.001 108 73.001C112.672 73.001 116.936 73.299 120.791 73.897C129.157 75.038 134.451 75.608 136.68 75.608C143.088 75.608 148.166 73.326 151.914 68.764C155.662 64.202 157.535 58.662 157.535 52.143C157.535 47.363 156.666 43.193 154.93 39.637z M87.835 65.016C86.178 66.864 84.21 67.787 81.928 67.787C79.646 67.787 77.677 66.863 76.021 65.016C74.365 63.17 73.197 61.106 72.518 58.826C71.838 56.544 71.499 54.317 71.499 52.143C71.499 49.971 71.839 47.744 72.518 45.462C73.196 43.181 74.364 41.118 76.021 39.272C77.678 37.424 79.646 36.501 81.928 36.501C84.21 36.501 86.179 37.426 87.835 39.272C89.491 41.118 90.659 43.181 91.338 45.462C92.017 47.744 92.357 49.971 92.357 52.143S92.018 56.543 91.338 58.826C90.659 61.105 89.492 63.169 87.835 65.016z M139.979 65.016C138.323 66.864 136.354 67.787 134.073 67.787S129.823 66.863 128.165 65.016C126.509 63.17 125.341 61.106 124.663 58.826C123.983 56.544 123.643 54.317 123.643 52.143C123.643 49.971 123.983 47.744 124.663 45.462C125.341 43.181 126.509 41.118 128.165 39.272C129.823 37.424 131.792 36.501 134.073 36.501S138.323 37.426 139.979 39.272C141.634 41.118 142.802 43.181 143.483 45.462C144.161 47.744 144.501 49.971 144.501 52.143S144.161 56.543 143.483 58.826C142.802 61.105 141.634 63.169 139.979 65.016z" />
    <glyph glyph-name="github.svgx"
      unicode="&#xE00B;"
      horiz-adv-x="146" d=" M73 146C32.6811875 146 0 113.3188125 0 73S32.6811875 0 73 0S146 32.6811875 146 73S113.3188125 146 73 146zM116.352875 29.647125C110.7181875 24.0124375 104.161875 19.591375 96.861875 16.5025625C95.0095 15.7178125 93.1251875 15.028875 91.2135 14.43575V25.376625C91.2135 31.125375 89.2425 35.359375 85.2959375 38.0649375C87.7688125 38.3021875 90.036375 38.63525 92.1031875 39.064125S96.3554375 40.1089375 98.6640625 40.9165S103.0349375 42.68675 104.8645 43.8045625S108.450625 46.37325 110.13875 48.152625S113.24125 51.9531875 114.381875 54.211625S116.425875 59.1801875 117.092 62.3374375S118.0911875 68.9804375 118.0911875 72.781C118.0911875 80.1494375 115.6913125 86.422875 110.8915625 91.6013125C113.077 97.3044375 112.83975 103.504875 110.1798125 110.2071875L108.395875 110.421625C107.1594375 110.5630625 104.9375 110.0429375 101.7300625 108.852125S94.9228125 105.713125 90.930625 103.0075625C85.273125 104.5770625 79.40575 105.3618125 73.3239375 105.3618125C67.1919375 105.3618125 61.347375 104.5770625 55.7856875 103.0075625C53.2671875 104.7185 50.881 106.132875 48.6225625 107.2506875S44.557375 109.125875 43.2023125 109.5319375S40.588 110.184375 39.4245625 110.2801875S37.512875 110.3988125 37.1798125 110.3531875S36.6095 110.257375 36.4680625 110.21175C33.808125 103.4638125 33.570875 97.2588125 35.7563125 91.605875C30.9565625 86.4274375 28.5566875 80.154 28.5566875 72.7855625C28.5566875 68.985 28.88975 65.5038125 29.555875 62.342S31.125375 56.474625 32.266 54.2161875S34.821 49.9365625 36.509125 48.1571875S39.9538125 44.9269375 41.783375 43.809125S45.67975 41.728625 47.9838125 40.9210625S52.4733125 39.493 54.5446875 39.0686875S58.8790625 38.30675 61.3519375 38.0695C57.4555625 35.4095625 55.507375 31.180125 55.507375 25.3811875V14.225875C53.353875 14.864625 51.2323125 15.622 49.14725 16.507125C41.84725 19.5959375 35.2909375 24.017 29.65625 29.6516875S19.6005 41.8426875 16.5116875 49.1426875C13.3179375 56.693625 11.69825 64.7190625 11.69825 73.0045625S13.3179375 89.3155 16.5116875 96.8664375C19.6005 104.1664375 24.0215625 110.72275 29.65625 116.3574375S41.84725 126.4131875 49.14725 129.502C56.6981875 132.69575 64.7281875 134.3154375 73.009125 134.3154375S89.3200625 132.69575 96.871 129.502C104.171 126.4131875 110.7273125 121.992125 116.362 116.3574375S126.41775 104.1664375 129.5065625 96.8664375C132.7003125 89.3155 134.32 81.2855 134.32 73.0045625S132.7003125 56.693625 129.5065625 49.1426875C126.41775 41.8426875 121.9966875 35.286375 116.362 29.6516875z" />
    <glyph glyph-name="google"
      unicode="&#xE00C;"
      horiz-adv-x="216" d=" M118.225 54.464C116.786 56.393 115.198 58.186 113.459 59.841C111.721 61.497 109.982 63.005 108.245 64.362C106.507 65.72 104.918 67.024 103.479 68.274C102.04 69.522 100.872 70.827 99.976 72.184C99.08 73.542 98.632 74.927 98.632 76.339C98.632 78.295 99.257 80.128 100.506 81.839S103.276 85.206 105.068 86.809S108.652 90.163 110.445 92.064C112.236 93.966 113.757 96.477 115.007 99.601C116.255 102.724 116.88 106.295 116.88 110.314C116.88 115.094 115.821 119.684 113.702 124.083C111.584 128.483 108.597 131.905 104.74 134.349H115.739L126.737 140.786H91.135C86.084 140.786 81.005 140.242 75.901 139.154C68.352 137.47 61.997 133.627 56.837 127.626C51.677 121.624 49.097 114.821 49.097 107.217C49.097 99.178 51.99 92.497 57.774 87.175C63.558 81.853 70.497 79.191 78.59 79.191C80.219 79.191 82.12 79.327 84.293 79.598C84.184 79.164 83.995 78.58 83.723 77.847S83.234 76.529 83.071 76.095C82.908 75.661 82.772 75.132 82.664 74.507C82.555 73.882 82.501 73.243 82.501 72.592C82.501 69.007 84.238 64.96 87.715 60.452C83.587 60.342 79.514 59.976 75.494 59.351C71.475 58.726 67.266 57.748 62.866 56.417C58.467 55.087 54.529 53.158 51.053 50.633C47.577 48.107 44.97 45.107 43.232 41.63C41.222 37.61 40.217 33.944 40.217 30.631C40.217 26.992 41.032 23.693 42.661 20.732C44.29 17.773 46.381 15.355 48.934 13.482C51.487 11.607 54.434 10.033 57.774 8.755C61.114 7.48 64.427 6.569 67.713 6.026S74.244 5.212 77.449 5.212C92.005 5.212 103.412 8.769 111.667 15.884C119.271 22.511 123.073 30.17 123.073 38.861C123.073 41.958 122.6250000000001 44.849 121.728 47.538C120.832 50.229 119.665 52.536 118.225 54.464zM86.817 84.078C84.047 84.078 81.413 84.784 78.914 86.197C76.415 87.61 74.297 89.443 72.559 91.697C70.822 93.951 69.301 96.49 67.997 99.315C66.694 102.139 65.73 104.963 65.105 107.788C64.48 110.612 64.168 113.301 64.168 115.854C64.168 121.068 65.553 125.549 68.323 129.297C71.093 133.045 75.004 134.919 80.055 134.919C83.64 134.919 86.885 133.806 89.791 131.579C92.697 129.352 94.978 126.528 96.635 123.106C98.291 119.684 99.568 116.141 100.464 112.474C101.36 108.808 101.808 105.345 101.808 102.086C101.808 96.654 100.627 92.293 98.264 89.007C95.901 85.721 92.086 84.078 86.817 84.078zM109.344 22.895C107.851 20.342 105.828 18.346 103.275 16.908C100.722 15.468 97.993 14.409 95.087 13.729C92.181 13.049 89.126 12.71 85.921 12.71C82.445 12.71 78.995 13.118 75.574 13.932C72.153 14.746 68.88 15.984 65.757 17.639C62.634 19.295 60.108 21.577 58.18 24.484C56.252 27.389 55.288 30.689 55.288 34.383C55.288 37.641 56.021 40.547 57.488 43.1C58.955 45.653 60.829 47.691 63.11 49.21C65.391 50.731 68.052 51.981 71.094 52.957C74.136 53.936 77.069 54.614 79.893 54.994C82.717 55.375 85.596 55.564 88.529 55.564C90.322 55.564 91.68 55.509 92.603 55.402C92.929 55.183 93.757 54.614 95.088 53.691C96.419 52.767 97.315 52.142 97.777 51.816C98.238 51.491 99.08 50.866 100.302 49.943C101.524 49.019 102.393 48.327 102.909 47.865C103.424 47.404 104.171 46.711 105.149 45.788C106.126 44.864 106.846 44.064 107.308 43.385C107.769 42.706 108.34 41.878 109.019 40.901C109.698 39.922 110.173 38.985 110.445 38.089C110.716 37.192 110.974 36.215 111.218 35.156C111.462 34.095 111.584 32.996 111.584 31.855C111.585 28.434 110.838 25.447 109.344 22.895z M154.93 119.929L154.93 140.786L144.5 140.786L144.5 119.929L123.643 119.929L123.643 109.5L144.5 109.5L144.5 88.643L154.93 88.643L154.93 109.5L175.785 109.5L175.785 119.929z" />
    <glyph glyph-name="home.svgx"
      unicode="&#xE00D;"
      horiz-adv-x="146" d=" M146 61.8173125L73 118.4835625L0 61.8173125V84.9218125L73 141.5880625L146 84.9218125zM127.75 63.875V9.125H91.25V45.625H54.75V9.125H18.25V63.875L73 104.9375z" />
    <glyph glyph-name="info.svgx"
      unicode="&#xE00E;"
      horiz-adv-x="146" d=" M73 146C32.6811875 146 0 113.3188125 0 73S32.6811875 0 73 0S146 32.6811875 146 73S113.3188125 146 73 146zM63.875 118.625H82.125V100.375H63.875V118.625zM91.25 27.375H54.75V36.5H63.875V73H54.75V82.125H82.125V36.5H91.25V27.375z" />
    <glyph glyph-name="linkedin"
      unicode="&#xE00F;"
      horiz-adv-x="216" d=" M46.977 93.938H73.863V13.199H46.977z M162.098 86.563C156.451 92.728 148.981 95.811 139.694 95.811C136.272 95.811 133.162 95.39 130.364 94.548C127.567 93.706 125.205 92.525 123.276 91.004C121.348 89.483 119.813 88.071 118.673 86.768C117.589 85.53 116.53 84.089 115.495 82.458V93.939H88.69L88.772 90.028C88.827 87.42 88.854 79.382 88.854 65.912C88.854 52.441 88.8 34.871 88.691 13.199H115.495V58.254C115.495 61.024 115.793 63.223 116.391 64.854C117.533 67.625 119.255 69.946 121.565 71.819C123.874 73.694 126.739 74.631 130.161 74.631C134.832 74.631 138.268 73.015 140.468 69.783C142.667 66.552 143.767 62.084 143.767 56.381V13.201H170.572V59.475C170.57 71.371 167.747 80.4 162.098 86.563z M60.583 132.801C56.075 132.801 52.423 131.483 49.625 128.849C46.827 126.215 45.429 122.889 45.429 118.869C45.429 114.905 46.787 111.591 49.503 108.93C52.218 106.269 55.803 104.938 60.257 104.938H60.42C64.983 104.938 68.663 106.268 71.46 108.93C74.257 111.591 75.628 114.904 75.574 118.869C75.52 122.889 74.134 126.215 71.419 128.849C68.704 131.484 65.091 132.801 60.583 132.801z" />
    <glyph glyph-name="linkedin.svgx"
      unicode="&#xE010;"
      horiz-adv-x="146" d=" M73 143.0800000000002C34.2953999999998 143.0800000000002 2.9199999999998 111.7046000000002 2.9199999999998 73S34.2953999999998 2.9199999999998 73 2.9199999999998S143.0800000000002 34.2953999999998 143.0800000000002 73S111.7046000000002 143.0800000000002 73 143.0800000000002zM55.8449999999998 43.9533000000001H41.6537999999997V89.6148000000001H55.8449999999998C55.8449999999998 89.6148000000001 55.8449999999998 43.9533000000001 55.8449999999998 43.9533000000001zM48.6618 95.2211999999999C44.1796000000002 95.2211999999999 41.2814999999998 98.4039999999997 41.2814999999998 102.3241C41.2814999999998 106.3391000000001 44.2671999999997 109.4196999999998 48.8442999999998 109.4196999999998C53.4213999999999 109.4196999999998 56.2246 106.3390999999996 56.3122 102.3241C56.3194999999998 98.3966999999999 53.4213999999999 95.2211999999999 48.6618 95.2211999999999zM107.6677000000002 43.9533000000001H93.4838000000003V69.2624C93.4838000000003 75.1461999999999 91.4252000000004 79.1539000000001 86.2933000000002 79.1539000000001C82.3732000000004 79.1539000000001 80.0445000000002 76.4456000000003 79.0079000000003 73.8322000000002C78.6356000000004 72.9051000000002 78.5407000000001 71.5911000000001 78.5407000000001 70.2917000000002V43.9605999999999H64.3422000000002V75.0585999999999C64.3422000000002 80.7525999999997 64.1597000000003 85.5194999999998 63.9699000000003 89.6220999999999H76.2923000000002L76.9493 83.2783999999997H77.2267000000001C79.0954999999999 86.2640999999997 83.6725999999999 90.6513999999996 91.3303000000002 90.6513999999996C100.6670000000001 90.6513999999996 107.6677000000002 84.4025999999997 107.6677000000002 70.9559999999998C107.6677000000002 70.9560000000002 107.6677000000002 43.9533000000001 107.6677000000002 43.9533000000001z" />
    <glyph glyph-name="mail.svgx"
      unicode="&#xE011;"
      horiz-adv-x="146" d=" M127.75 123.1875H18.25C8.1714375 123.1875 0 115.0115 0 104.9375V45.625C0 35.5464375 8.1714375 27.375 18.25 27.375H127.75C137.8285625 27.375 146 35.5464375 146 45.625V104.9375C146 115.0115 137.8285625 123.1875 127.75 123.1875zM9.125 99.234375L41.0579375 75.28125L9.125 51.328125V99.234375zM136.875 45.625C136.875 40.588 132.777875 36.5 127.75 36.5H18.25C13.2175625 36.5 9.125 40.588 9.125 45.625L44.8585 72.4296875L64.7875 57.478375C67.2193125 55.6625 70.107375 54.740875 73 54.740875C75.8880625 54.740875 78.776125 55.6579375 81.2079375 57.478375L101.1415 72.4296875L136.875 45.625zM136.875 51.328125L104.9375 75.28125L136.875 99.234375V51.328125zM78.4704375 61.128375C76.878125 59.933 74.98925 59.303375 73 59.303375S69.1173125 59.9375625 67.525 61.128375L9.125 104.9375C9.125 109.9699375 13.2175625 114.0625 18.25 114.0625H127.75C132.777875 114.0625 136.875 109.9699375 136.875 104.9375L78.4704375 61.128375z" />
    <glyph glyph-name="menu.svgx"
      unicode="&#xE012;"
      horiz-adv-x="146" d=" M9.125 118.625H136.875V91.25H9.125zM9.125 82.125H136.875V54.75H9.125zM9.125 45.625H136.875V18.25H9.125z" />
    <glyph glyph-name="phone"
      unicode="&#xE013;"
      horiz-adv-x="216" d=" M165.111 41.473C164.786 42.451 162.722 43.891 158.919 45.791C157.889 46.389 156.421 47.203 154.522 48.235C152.62 49.267 150.895 50.218 149.348 51.088C147.799 51.956 146.346 52.799 144.989 53.612C144.772 53.775 144.093 54.25 142.952 55.038C141.811 55.825 140.848 56.409 140.059 56.79C139.272 57.17 138.498 57.36 137.737 57.36C136.651 57.36 135.294 56.586 133.665 55.038S130.542 51.807 129.185 49.986C127.827 48.166 126.388 46.483 124.868 44.935C123.347 43.386 122.097 42.613 121.12 42.613C120.631 42.613 120.019 42.749 119.286 43.019C118.554 43.29 117.997 43.523 117.615 43.711C117.236 43.902 116.585 44.281 115.661 44.853C114.736 45.423 114.221 45.736 114.113 45.791C106.672 49.919 100.29 54.645 94.967 59.967C89.645 65.29 84.919 71.672 80.791 79.113C80.737 79.222 80.424 79.738 79.854 80.661C79.283 81.585 78.903 82.236 78.713 82.617C78.523 82.997 78.292 83.554 78.021 84.287C77.75 85.02 77.614 85.631 77.614 86.12C77.614 87.097 78.388 88.347 79.936 89.868C81.484 91.388 83.168 92.828 84.987 94.185C86.807 95.542 88.49 97.036 90.038 98.665C91.586 100.295 92.36 101.652 92.36 102.738C92.36 103.498 92.17 104.273 91.79 105.06C91.41 105.849 90.826 106.812 90.038 107.953C89.25 109.094 88.775 109.772 88.612 109.99C87.798 111.347 86.957 112.8 86.087 114.348C85.217 115.896 84.267 117.621 83.235 119.522C82.203 121.422 81.389 122.889 80.791 123.921C78.89 127.722 77.451 129.787 76.473 130.112C76.093 130.275 75.522 130.357 74.762 130.357C73.295 130.357 71.381 130.086 69.018 129.542C66.655 128.999 64.795 128.429 63.437 127.831C60.721 126.691 57.843 123.378 54.801 117.893C52.031 112.788 50.646 107.736 50.646 102.739C50.646 101.274 50.741 99.848 50.931 98.462C51.121 97.077 51.461 95.515 51.95 93.777C52.439 92.039 52.833 90.748 53.131 89.907S53.986 87.559 54.801 85.386C55.615 83.213 56.104 81.883 56.267 81.394C58.168 76.071 60.422 71.319 63.029 67.136C67.318 60.184 73.171 53 80.585 45.586S95.182 32.319 102.135 28.028C106.317 25.422 111.071 23.167 116.393 21.265C116.882 21.103 118.213 20.614 120.385 19.798C122.557 18.984 124.065 18.427 124.906 18.128S127.038 17.435 128.775 16.946C130.515 16.457 132.076 16.117 133.461 15.926C134.846 15.738 136.272 15.641 137.738 15.641C142.734 15.641 147.786 17.027 152.892 19.796C158.376 22.838 161.689 25.717 162.83 28.434C163.429 29.79 163.998 31.651 164.541 34.014C165.085 36.376 165.356 38.29 165.356 39.757C165.357 40.52 165.275 41.09 165.111 41.473z" />
    <glyph glyph-name="phone.svgx"
      unicode="&#xE014;"
      horiz-adv-x="146" d=" M100.375 54.75C91.25 45.625 91.25 36.5 82.125 36.5S63.875 45.625 54.75 54.75S36.5 73 36.5 82.125S45.625 91.25 54.75 100.375S36.5 136.875 27.375 136.875S0 109.5 0 109.5C0 91.25 18.7473125 54.2526875 36.5 36.5S91.25 0 109.5 0C109.5 0 136.875 18.25 136.875 27.375S109.5 63.875 100.375 54.75z" />
    <glyph glyph-name="print.svgx"
      unicode="&#xE015;"
      horiz-adv-x="146" d=" M36.5 136.875H109.5V118.625H36.5zM136.875 109.5H9.125C4.10625 109.5 0 105.39375 0 100.375V54.75C0 49.73125 4.10625 45.625 9.125 45.625H36.5V9.125H109.5V45.625H136.875C141.89375 45.625 146 49.73125 146 54.75V100.375C146 105.39375 141.89375 109.5 136.875 109.5zM100.375 18.25H45.625V63.875H100.375V18.25zM138.928125 95.8125C138.928125 92.1579375 135.9670625 89.196875 132.3125 89.196875S125.696875 92.1579375 125.696875 95.8125S128.6579375 102.428125 132.3125 102.428125C135.9670625 102.428125 138.928125 99.4670625 138.928125 95.8125z" />
    <glyph glyph-name="send.svgx"
      unicode="&#xE016;"
      horiz-adv-x="146" d=" M143.9149375 145.27C143.1575625 145.7581875 142.29525 146 141.4375 146C140.5569375 146 139.6718125 145.7490625 138.9053125 145.2335L2.0303125 53.9835C0.6205 53.0481875 -0.155125 51.401125 0.027375 49.713C0.20075 48.0294375 1.29575 46.574 2.8698125 45.9535L38.5668125 31.6683125L55.35225 2.2949375C56.15525 0.885125 57.6471875 0.0136875 59.2623125 -0.0045625C59.2805625 -0.0045625 59.29425 -0.0045625 59.3125 -0.0045625C60.9139375 -0.0045625 62.4013125 0.8440625 63.2225625 2.2128125L72.698875 18.01275L116.9323125 0.3239375C117.47525 0.1049375 118.0455625 0 118.625 0C119.400625 0 120.167125 0.1961875 120.860625 0.5885625C122.065125 1.2638125 122.8909375 2.4500625 123.123625 3.81425L145.936125 140.68925C146.2326875 142.4823125 145.4388125 144.2799375 143.9149375 145.2700000000001zM14.308 51.2049375L120.0439375 121.700125L43.1658125 39.4063125C42.75975 39.648125 42.3993125 39.9675 41.9521875 40.1454375L14.308 51.2049375zM46.4873125 36.198875C46.4781875 36.217125 46.4645 36.22625 46.455375 36.2445L132.8828125 128.7491875L59.203 13.9475625L46.4873125 36.198875zM115.0525625 10.9089375L76.08425 26.4944375C75.1580625 26.8594375 74.195375 26.982625 73.2418125 27.037375L133.2478125 120.057625L115.0525625 10.9089375z" />
    <glyph glyph-name="success.svgx"
      unicode="&#xE017;"
      horiz-adv-x="146" d=" M73 146C32.6811875 146 0 113.3188125 0 73S32.6811875 0 73 0S146 32.6811875 146 73S113.3188125 146 73 146zM59.3125 27.375L29.0859375 66.7265625L42.4905625 80.7015L59.3170625 59.3125L112.07325 102.373375L118.634125 95.8125L59.321625 27.375z" />
    <glyph glyph-name="tools.svgx"
      unicode="&#xE018;"
      horiz-adv-x="146" d=" M22.8782 95.703C29.6964 100.9955 35.3466 97.3528 42.8875 88.622C43.7416 87.6438 44.8804 88.7899 45.5228 89.352C46.1652 89.9214 56.1224 98.8712 56.6042 99.2873C57.0933 99.718 57.6773 100.521 56.9035 101.4189S53.2973 105.9814 51.4796 108.3539C38.2812 125.6184 87.5854 137.3276 80.008 137.5101C76.1609 137.6123 60.6922 137.7875 58.3854 137.5466C49.0195 136.5538 37.2592 127.8011 31.3389 123.7277C23.6009 118.406 20.7028 115.3181 20.2283 114.8874C18.0383 112.9675 19.8779 108.5583 15.9067 105.0762C11.7092 101.397 9.0958 104.1783 6.6649 102.0467C5.4531 100.9809 2.0878 98.4624 1.1169 97.6083C0.1533 96.7615 -0.0219 95.3234 0.9636 94.17C0.9636 94.17 10.1835 83.9792 10.9646 83.0813S13.8189 81.4242 15.111 82.563C16.4031 83.6945 19.7173 86.6072 20.2794 87.1036S19.9144 93.4035 22.8782 95.703zM64.5539 91.9362C63.6779 92.9509 62.5975 92.9728 61.6558 92.1406L51.1803 83.0083C50.3627 82.2783 50.2532 80.9351 50.9905 80.0883L111.5367 11.1909C112.9456 9.5557 115.3984 9.3878 117.0263 10.804L124.1146 16.7316C125.7279 18.1478 125.8958 20.6298 124.4869 22.2577L64.5539 91.9362zM145.2846 121.2603C144.7444 124.8665 142.8756 124.1073 141.9047 122.5743C140.9484 121.0486 136.6414 114.537 134.8748 111.5951C133.1228 108.6605 128.8158 102.9008 120.7566 108.5875C112.3762 114.5151 115.2962 118.6542 116.7489 121.4355C118.2162 124.2314 122.7203 132.057 123.3773 133.0425C124.0197 134.028 123.2605 136.8896 120.669 135.6924C118.0629 134.4879 102.2511 128.2026 100.0538 119.1944C97.8127 110.0183 101.9372 101.8277 93.8488 93.6882L84.0522 83.4682L93.8926 72.0218L105.9668 83.4901C108.8503 86.3809 114.9896 89.1914 120.5522 87.9285C132.4731 85.2275 138.9701 89.7097 142.8975 97.1046C146.4161 103.7257 145.8321 117.6541 145.2846000000001 121.2603zM20.002 21.5277C18.4836 19.9947 18.4836 17.5127 20.002 15.987L26.9443 9.198C28.4627 7.6723 30.8717 8.3147 32.3901 9.8404L68.2112 45.0629L57.232 57.5678L20.002 21.5277z" />
    <glyph glyph-name="twitter"
      unicode="&#xE019;"
      horiz-adv-x="216" d=" M172.201 112.759C167.15 110.586 162.097 109.229 157.048 108.684C162.751 112.106 166.608 116.94 168.618 123.186C163.402 120.091 157.835 117.973 151.915 116.832C146.7 122.372 140.292 125.143 132.687 125.143C125.409 125.143 119.204 122.577 114.07 117.444C108.937 112.311 106.371 106.106 106.371 98.828C106.371 96.873 106.588 94.863 107.023 92.799C96.268 93.342 86.179 96.044 76.755 100.905C67.331 105.767 59.333 112.244 52.761 120.337C50.371 116.264 49.176 111.837 49.176 107.057C49.176 102.549 50.235 98.366 52.354 94.51C54.472 90.654 57.324 87.531 60.909 85.141C56.672 85.304 52.707 86.418 49.014 88.482V88.156C49.014 81.801 51.01 76.221 55.002 71.413C58.994 66.605 64.032 63.578 70.115 62.329C67.834 61.732 65.525 61.433 63.19 61.433C61.669 61.433 60.012 61.569 58.22 61.839C59.904 56.571 63 52.24 67.508 48.845C72.016 45.449 77.122 43.699 82.825 43.589C73.266 36.095 62.376 32.347 50.155 32.347C47.819 32.347 45.701 32.454 43.8 32.672C56.021 24.797 69.491 20.86 84.211 20.86C93.553 20.86 102.325 22.339 110.525 25.299C118.728 28.259 125.734 32.224 131.546 37.195C137.357 42.164 142.368 47.881 146.577 54.345C150.786 60.808 153.922 67.556 155.987 74.59C158.051 81.625 159.083 88.671 159.083 95.733C159.083 97.254 159.056 98.394 159.001 99.155C164.162 102.901 168.562 107.437 172.201 112.759z" />
    <glyph glyph-name="twitter.svgx"
      unicode="&#xE01A;"
      horiz-adv-x="146" d=" M73 146C32.6811875 146 0 113.3188125 0 73S32.6811875 0 73 0S146 32.6811875 146 73S113.3188125 146 73 146zM114.9521875 94.51675C114.99325 93.5905625 115.0160625 92.65525 115.0160625 91.715375C115.0160625 63.1130625 93.2438125 30.1261875 53.426875 30.1261875C41.2039375 30.1261875 29.8250625 33.70775 20.2438125 39.8534375C21.9365 39.6526875 23.661125 39.5523125 25.4085625 39.5523125C35.551 39.5523125 44.8813125 43.01525 52.2908125 48.81875C42.8190625 48.992125 34.8255625 55.251875 32.0698125 63.8521875C33.3929375 63.60125 34.748 63.464375 36.144125 63.464375C38.1196875 63.464375 40.031375 63.729 41.84725 64.22175C31.946625 66.211 24.482375 74.961875 24.482375 85.4465C24.482375 85.53775 24.482375 85.629 24.482375 85.72025C27.402375 84.1005625 30.7375625 83.1241875 34.2871875 83.0146875C28.479125 86.897375 24.65575 93.522125 24.65575 101.032C24.65575 104.9968125 25.723375 108.71525 27.584875 111.9135625C38.261125 98.8191875 54.211625 90.200625 72.2015625 89.29725C71.832 90.8804375 71.640375 92.5320625 71.640375 94.2293125C71.640375 106.1830625 81.331125 115.8738125 93.284875 115.8738125C99.5126875 115.8738125 105.13825 113.2458125 109.0848125 109.0391875C114.016875 110.011 118.6478125 111.8131875 122.831625 114.290625C121.2165 109.235375 117.7809375 104.99225 113.31425 102.3140625C117.69425 102.83875 121.864375 104.0021875 125.7470625 105.72225C122.8453125 101.3833125 119.1770625 97.5690625 114.947625 94.51675z" />
    <glyph glyph-name="viadeo.svgx"
      unicode="&#xE01B;"
      horiz-adv-x="146" d=" M68.580078125 143.245390625L87.49278125 102.79084375C87.760828125 113.021109375 79.21184375 137.170421875 68.580078125 143.245390625zM127.767109375 140.39953125C127.493359375 140.3744375 127.20021875 140.0641875 126.884265625 139.440265625C122.59209375 131.597328125 115.186015625 126.94015625 108.2635625 124.993109375C101.22590625 123.017546875 93.905375 118.304484375 91.219203125 112.961796875C88.08134375 105.676625 89.42728125 99.89365625 92.478453125 93.329359375C96.326921875 93.91221875 100.1788125 95.39959375 103.43871875 96.96225C111.800640625 101.033140625 119.04475 107.413796875 123.756671875 114.880328125C125.65125 117.88359375 126.021953125 117.344078125 124.390859375 113.963265625C121.31915625 107.5974375 111.25428125 98.676609375 98.615015625 91.109703125C95.797671875 89.42271875 95.756609375 89.364546875 97.0215625 88.264984375C101.06621875 84.745015625 105.499828125 82.61546875 109.523953125 82.2755625C126.97665625 82.19571875 134.46828125 100.89284375 134.957609375 113.88684375C134.827578125 122.31834375 133.401796875 133.21359375 128.2393281250001 140.133765625C128.081921875 140.33109375 127.931359375 140.414359375 127.767109375 140.39953125L127.767109375 140.39953125zM64.149890625 104.126515625C36.314078125 104.126515625 13.62590625 81.43834375 13.62590625 53.60253125S36.314078125 3.078546875 64.149890625 3.078546875S114.66475 25.76671875 114.66475 53.60253125C114.66475 60.561484375 113.256078125 67.2284375 110.69765625 73.277171875L100.097828125 68.79565625C102.06996875 64.131640625 103.166109375 59.0068125 103.166109375 53.60253125C103.166109375 32.61503125 86.7650625 15.60375 66.027359375 14.62965625C90.026109375 31.026140625 100.8905625 73.4881875 88.05853125 100.4845C89.07825 81.957328125 88.242171875 31.54740625 59.557734375 14.85321875C40.122625 17.1139375 25.126828125 33.54121875 25.126828125 53.60253125C25.126828125 75.220796875 42.532765625 92.617609375 64.15103125 92.617609375C69.5553125 92.617609375 74.66303125 91.53971875 79.327046875 89.5664375L83.8176875 100.14915625C77.7678125 102.70871875 71.10884375 104.126515625 64.149890625 104.126515625L64.149890625 104.126515625z" />
    <glyph glyph-name="warning.svgx"
      unicode="&#xE01C;"
      horiz-adv-x="146" d=" M73 123.37L23.8345 18.25H122.1655L73 123.37zM73 146V146C76.148125 146 79.2916875 143.8784375 81.6824375 139.6353125L144.001625 15.4349375C148.7785625 6.9486875 144.713375 0 134.977 0H11.032125C1.2911875 0 -2.7694375 6.944125 2.0075 15.4349375L64.3266875 139.6353125C66.712875 143.8784375 69.861 146 73.009125 146zM63.875 36.5C63.875 41.5415625 67.9584375 45.625 73 45.625S82.125 41.5415625 82.125 36.5C82.125 31.4584375 78.0415625 27.375 73 27.375S63.875 31.4584375 63.875 36.5zM73 91.25C78.0415625 91.25 82.125 87.1665625 82.125 82.125L79.2734375 54.75H66.7265625L63.875 82.125C63.875 87.1665625 67.9584375 91.25 73 91.25z" />
    <glyph glyph-name="zoom.svgx"
      unicode="&#xE01D;"
      horiz-adv-x="146" d=" M141.474 21.7585625L106.89025 51.173C103.31325 54.3895625 99.489875 55.8678125 96.4010625 55.726375C104.563375 65.289375 109.4954375 77.6948125 109.4954375 91.2545625C109.4954375 121.49025 84.981125 146.0045625 54.7454375 146.0045625S-0.0045625 121.49025 -0.0045625 91.2545625C-0.0045625 61.018875 24.50975 36.5045625 54.7454375 36.5045625C68.3051875 36.5045625 80.710625 41.436625 90.273625 49.5989375C90.1321875 46.510125 91.6104375 42.68675 94.827 39.10975L124.2414375 4.526C129.2784375 -1.067625 137.504625 -1.542125 142.523375 3.476625S147.0721875 16.7215625 141.474 21.7585625zM54.75 54.75C34.592875 54.75 18.25 71.092875 18.25 91.25S34.592875 127.75 54.75 127.75S91.25 111.407125 91.25 91.25S74.907125 54.75 54.75 54.75zM63.875 118.625H45.625V100.375H27.375V82.125H45.625V63.875H63.875V82.125H82.125V100.375H63.875z" />
  </font>
</defs>
</svg>
